<svg id="Layer_2" data-name="Layer 2" xmlns="http://www.w3.org/2000/svg" xmlns:xlink="http://www.w3.org/1999/xlink" viewBox="0 0 512 512"><defs><style>.cls-1{fill:none;}.cls-2{clip-path:url(#clip-path);}.cls-3{fill:#6cbc39;}.cls-4{fill:#3d3d3d;}.cls-5{clip-path:url(#clip-path-2);}.cls-6{clip-path:url(#clip-path-3);}.cls-7{clip-path:url(#clip-path-4);}.cls-8{clip-path:url(#clip-path-5);}</style><clipPath id="clip-path"><rect class="cls-1" width="512" height="512"/></clipPath><clipPath id="clip-path-2"><rect class="cls-1" x="42.25" y="194.57" width="124.67" height="124.67"/></clipPath><clipPath id="clip-path-3"><circle class="cls-1" cx="378.24" cy="403.41" r="69.17"/></clipPath><clipPath id="clip-path-4"><circle class="cls-1" cx="400.14" cy="413.9" r="69.17"/></clipPath><clipPath id="clip-path-5"><rect class="cls-1" x="241.49" y="233.85" width="79.33" height="79.33"/></clipPath></defs><title>Artboard 1</title><g class="cls-2"><circle class="cls-3" cx="155.24" cy="75.9" r="39.97"/><path class="cls-4" d="M337.55,283.34a41,41,0,1,1,41-41A41,41,0,0,1,337.55,283.34Zm0-79.94a39,39,0,1,0,39,39A39,39,0,0,0,337.55,203.4Z"/><path class="cls-4" d="M337.55,269.66a27.26,27.26,0,0,1-8.85-1.47l.65-1.89a25.53,25.53,0,0,0,11.39,1.16l.25,2A27.6,27.6,0,0,1,337.55,269.66ZM348,267.6l-.77-1.85a25.49,25.49,0,0,0,9.31-6.66l1.5,1.32A27.51,27.51,0,0,1,348,267.6ZM322.22,265a27.58,27.58,0,0,1-8.38-9.06l1.74-1a25.55,25.55,0,0,0,7.77,8.4Zm39.84-10.56-1.79-.88a25,25,0,0,0,2.58-11.15h2A27,27,0,0,1,362.06,254.4Zm-50.95-5.21a27.53,27.53,0,0,1-.3-12.34l2,.4a25.52,25.52,0,0,0,.28,11.44Zm51.7-8.05a25,25,0,0,0-3.12-11l1.75-1A27,27,0,0,1,364.82,241ZM315,230.91l-1.78-.91a27.56,27.56,0,0,1,7.94-9.46l1.2,1.6A25.53,25.53,0,0,0,315,230.91Zm40.7-6.17a25.45,25.45,0,0,0-9.62-6.2l.67-1.88a27.45,27.45,0,0,1,10.38,6.69Zm-27.49-5.88-.74-1.86a27.39,27.39,0,0,1,12.2-1.85l-.15,2A25.3,25.3,0,0,0,328.2,218.86Z"/><path class="cls-4" d="M337.55,257a14.66,14.66,0,1,1,14.66-14.66A14.68,14.68,0,0,1,337.55,257Zm0-27.33a12.66,12.66,0,1,0,12.66,12.66A12.68,12.68,0,0,0,337.55,229.71Z"/><path class="cls-4" d="M337.57,297.09h0c-1.21,0-2.44,0-3.65-.12l.13-2c1.17.08,2.35.12,3.52.12h0a53.07,53.07,0,0,0,8.2-.64l.31,2A55.26,55.26,0,0,1,337.57,297.09Zm-10.73-1a54.44,54.44,0,0,1-11.62-3.7l.82-1.83a52.47,52.47,0,0,0,11.2,3.57ZM353,294.87l-.56-1.92a52.54,52.54,0,0,0,10.83-4.56l1,1.74A54.49,54.49,0,0,1,353,294.87ZM308.92,289a55.06,55.06,0,0,1-9.61-7.51l1.4-1.43A53,53,0,0,0,310,287.3Zm61.33-2.75-1.2-1.6a53.1,53.1,0,0,0,8.58-8l1.52,1.3A55.08,55.08,0,0,1,370.24,286.25Zm-75.7-10a54.78,54.78,0,0,1-6.43-10.36l1.81-.86a52.75,52.75,0,0,0,6.2,10Zm88.88-4-1.68-1.09a52.61,52.61,0,0,0,5.28-10.5l1.88.69A54.64,54.64,0,0,1,383.42,272.22Zm-97.94-13a54.66,54.66,0,0,1-2.43-12l2-.18a52.63,52.63,0,0,0,2.34,11.51Zm105.45-4.74-2-.44a53,53,0,0,0,1.3-11.68h2A55,55,0,0,1,390.92,254.49ZM284.87,240.24l-2-.08a54.68,54.68,0,0,1,1.83-12.06l1.93.52A52.71,52.71,0,0,0,284.87,240.24Zm105.33-.48a52.74,52.74,0,0,0-1.87-11.6l1.93-.54a54.67,54.67,0,0,1,1.94,12ZM288.86,222.12l-1.85-.77a54.76,54.76,0,0,1,5.92-10.67l1.63,1.16A52.72,52.72,0,0,0,288.86,222.12Zm97.2-.44a52.64,52.64,0,0,0-5.79-10.22l1.62-1.17a54.65,54.65,0,0,1,6,10.61Zm-87.17-15.16-1.47-1.36a55.15,55.15,0,0,1,9.23-8l1.13,1.65A53.13,53.13,0,0,0,298.89,206.52Zm77-.34a53.08,53.08,0,0,0-9-7.6l1.12-1.66a55.09,55.09,0,0,1,9.3,7.89Zm-62.21-10.84-.91-1.78a54.44,54.44,0,0,1,11.42-4.28l.49,1.94A52.44,52.44,0,0,0,313.69,195.35Zm47.31-.21a52.43,52.43,0,0,0-11-4l.47-1.94a54.45,54.45,0,0,1,11.46,4.17ZM331.44,190l-.23-2A55.88,55.88,0,0,1,343.4,188l-.21,2A53.69,53.69,0,0,0,331.44,190Z"/><path class="cls-4" d="M170.76,129.42a41.41,41.41,0,0,1-6.32-.48l.31-2a39.61,39.61,0,0,0,11.65.06l.29,2A41.54,41.54,0,0,1,170.76,129.42Zm12.9-2.07-.63-1.9a38.82,38.82,0,0,0,10.38-5.29l1.16,1.63A40.81,40.81,0,0,1,183.66,127.34Zm-26.18-.13a40.82,40.82,0,0,1-10.86-5.67l1.18-1.62a38.81,38.81,0,0,0,10.33,5.39ZM200,117.12l-1.43-1.4a39,39,0,0,0,6.83-9.44l1.78.92A41,41,0,0,1,200,117.12Zm-58.8-.28a41,41,0,0,1-7.08-10l1.79-.9a39,39,0,0,0,6.74,9.51Zm68.69-16.28L208,100a39,39,0,0,0,1.73-11.52,39.72,39.72,0,0,0-.22-4.12l2-.21a41.84,41.84,0,0,1,.23,4.33A41,41,0,0,1,209.9,100.56Zm-78.41-.38a41,41,0,0,1-1.71-11.74v-.4l2,0v.37a39,39,0,0,0,1.62,11.16Zm.95-18.89-2-.37a40.66,40.66,0,0,1,4-11.57l1.77.93A38.67,38.67,0,0,0,132.44,81.29Zm75.76-3.65a38.74,38.74,0,0,0-4.87-10.58L205,66a40.78,40.78,0,0,1,5.12,11.13ZM140,64.56l-1.58-1.23a41.15,41.15,0,0,1,8.87-8.45l1.15,1.64A39.15,39.15,0,0,0,140,64.56Zm59.14-2.85a39.07,39.07,0,0,0-9.17-7.19l1-1.74a41.07,41.07,0,0,1,9.64,7.56Zm-44.8-8.6-.85-1.81a40.68,40.68,0,0,1,11.76-3.45l.27,2A38.66,38.66,0,0,0,154.3,53.11Zm29.43-1.42a38.83,38.83,0,0,0-11.44-2.18l.08-2a40.82,40.82,0,0,1,12,2.3Z"/><path class="cls-4" d="M67.39,103.53l-6-8L63,94.31l6,8Zm-8.93-12-6-8,1.61-1.19,6,8Zm-8.93-12-1.49-2,5.26-7.26,1.62,1.17-4.4,6.07.62.83Zm8.32-12.14-1.62-1.17L62.09,58l1.62,1.17Zm8.8-12.15L65,54l4.48-6.19L69,47.14l1.55-1.26L72,47.72Zm-.8-11.88-6.3-7.77,1.55-1.26L67.4,42ZM56.39,31.61l-6.3-7.77,1.55-1.26,6.3,7.77Zm-4.8-11.67L50,18.7l6.23-7.82,1.56,1.25ZM60.93,8.21,59.37,7,65.6-.86,67.16.39ZM70.28-3.52,68.71-4.77l.74-.93-4.79-5.24,1.48-1.35,5.94,6.5Zm-9-11.11L54.54-22,56-23.36,62.77-16ZM51.17-25.7,48-29.18l4.12-5.56,1.61,1.19-3.14,4.24L52.64-27Zm5.52-11.87-1.61-1.19,6-8,1.61,1.19Zm8.93-12L64-50.81l6-8,1.61,1.19Z"/><polygon class="cls-3" points="48.47 164.01 26.53 134.42 48.01 104.78 26.49 78.26 47.96 51.3 26.48 27.82 48.47 -1.85 50.08 -0.65 29.07 27.68 50.59 51.2 29.05 78.24 50.53 104.72 29.01 134.41 50.08 162.82 48.47 164.01"/><polygon class="cls-3" points="332.44 43.87 305.44 22.37 278.97 43.84 249.28 22.32 220.86 43.39 219.67 41.78 249.26 19.84 278.9 41.32 305.43 19.8 332.43 41.3 359.52 19.45 385.59 41.83 384.28 43.34 359.48 22.05 332.44 43.87"/><polygon class="cls-3" points="495.98 43.9 468.94 22.37 442.47 43.84 412.78 22.32 384.37 43.39 383.18 41.78 412.77 19.84 442.4 41.32 468.93 19.8 495.89 41.27 519.37 19.79 549.03 41.78 547.84 43.39 519.51 22.38 495.98 43.9"/><polygon class="cls-4" points="335.73 74.38 306.03 52.86 277.62 73.93 276.43 72.32 306.02 50.38 335.66 71.86 362.19 50.34 389.81 72.34 388.57 73.91 362.2 52.91 335.73 74.38"/><polygon class="cls-4" points="499.23 74.38 469.54 52.86 441.13 73.93 439.94 72.32 469.52 50.38 499.16 71.86 525.69 50.34 553.32 72.34 552.07 73.91 525.7 52.91 499.23 74.38"/><rect class="cls-3" x="75.86" y="167.57" width="124.67" height="124.67"/><g class="cls-5"><polygon class="cls-4" points="232.06 276.31 117.17 128.15 110.74 133.11 225.62 281.26 232.06 276.31"/><polygon class="cls-4" points="219.91 285.8 105.02 137.64 98.59 142.6 213.47 290.75 219.91 285.8"/><polygon class="cls-4" points="207.76 295.29 92.87 147.13 86.44 152.09 201.33 300.25 207.76 295.29"/><polygon class="cls-4" points="195.61 304.78 80.72 156.62 74.29 161.58 189.18 309.74 195.61 304.78"/><polygon class="cls-4" points="183.46 314.27 68.58 166.12 62.14 171.07 177.03 319.23 183.46 314.27"/><polygon class="cls-4" points="171.31 323.76 56.43 175.61 49.99 180.56 164.88 328.72 171.31 323.76"/><polygon class="cls-4" points="159.16 333.25 44.28 185.1 37.84 190.05 152.73 338.21 159.16 333.25"/><polygon class="cls-4" points="147.01 342.74 32.13 194.59 25.7 199.54 140.58 347.7 147.01 342.74"/><polygon class="cls-4" points="134.87 352.23 19.98 204.08 13.55 209.04 128.43 357.19 134.87 352.23"/><polygon class="cls-4" points="122.72 361.73 7.83 213.57 1.4 218.53 116.28 366.68 122.72 361.73"/><polygon class="cls-4" points="110.57 371.22 -4.32 223.06 -10.75 228.02 104.14 376.17 110.57 371.22"/><polygon class="cls-4" points="98.42 380.71 -16.47 232.55 -22.9 237.51 91.99 385.66 98.42 380.71"/></g><rect class="cls-3" x="-5" y="355.49" width="292" height="9.23"/><rect class="cls-4" x="-37.61" y="379.94" width="292" height="9.23"/><g class="cls-6"><circle class="cls-4" cx="342.01" cy="272.44" r="4.2"/><circle class="cls-4" cx="366.42" cy="272.44" r="4.2"/><circle class="cls-4" cx="390.83" cy="272.44" r="4.2"/><circle class="cls-4" cx="415.25" cy="272.44" r="4.2"/><circle class="cls-4" cx="439.66" cy="272.44" r="4.2"/><circle class="cls-4" cx="464.07" cy="272.44" r="4.2"/><circle class="cls-4" cx="488.49" cy="272.44" r="4.2"/><circle class="cls-4" cx="512.9" cy="272.44" r="4.2"/><circle class="cls-4" cx="342.01" cy="296.26" r="4.2"/><circle class="cls-4" cx="366.42" cy="296.26" r="4.2"/><circle class="cls-4" cx="390.83" cy="296.26" r="4.2"/><circle class="cls-4" cx="415.25" cy="296.26" r="4.2"/><circle class="cls-4" cx="439.66" cy="296.26" r="4.2"/><circle class="cls-4" cx="464.07" cy="296.26" r="4.2"/><circle class="cls-4" cx="488.49" cy="296.26" r="4.2"/><circle class="cls-4" cx="512.9" cy="296.26" r="4.2"/><circle class="cls-4" cx="342.01" cy="320.07" r="4.2"/><circle class="cls-4" cx="366.42" cy="320.07" r="4.2"/><circle class="cls-4" cx="390.83" cy="320.07" r="4.2"/><circle class="cls-4" cx="415.25" cy="320.07" r="4.2"/><circle class="cls-4" cx="439.66" cy="320.07" r="4.2"/><circle class="cls-4" cx="464.07" cy="320.07" r="4.2"/><circle class="cls-4" cx="488.49" cy="320.07" r="4.2"/><circle class="cls-4" cx="512.9" cy="320.07" r="4.2"/><circle class="cls-4" cx="342.01" cy="343.88" r="4.2"/><circle class="cls-4" cx="366.42" cy="343.88" r="4.2"/><circle class="cls-4" cx="390.83" cy="343.88" r="4.2"/><circle class="cls-4" cx="415.25" cy="343.88" r="4.2"/><circle class="cls-4" cx="439.66" cy="343.88" r="4.2"/><circle class="cls-4" cx="464.07" cy="343.88" r="4.2"/><circle class="cls-4" cx="488.49" cy="343.88" r="4.2"/><circle class="cls-4" cx="512.9" cy="343.88" r="4.2"/><circle class="cls-4" cx="342.01" cy="367.7" r="4.2"/><circle class="cls-4" cx="366.42" cy="367.7" r="4.2"/><circle class="cls-4" cx="390.83" cy="367.7" r="4.2"/><circle class="cls-4" cx="415.25" cy="367.7" r="4.2"/><circle class="cls-4" cx="439.66" cy="367.7" r="4.2"/><circle class="cls-4" cx="464.07" cy="367.7" r="4.2"/><circle class="cls-4" cx="488.49" cy="367.7" r="4.2"/><circle class="cls-4" cx="512.9" cy="367.7" r="4.2"/><circle class="cls-4" cx="342.01" cy="391.51" r="4.2"/><circle class="cls-4" cx="366.42" cy="391.51" r="4.2"/><circle class="cls-4" cx="390.83" cy="391.51" r="4.2"/><circle class="cls-4" cx="415.25" cy="391.51" r="4.2"/><circle class="cls-4" cx="439.66" cy="391.51" r="4.2"/><circle class="cls-4" cx="464.07" cy="391.51" r="4.2"/><circle class="cls-4" cx="488.49" cy="391.51" r="4.2"/><circle class="cls-4" cx="512.9" cy="391.51" r="4.2"/><circle class="cls-4" cx="342.01" cy="415.32" r="4.2"/><circle class="cls-4" cx="366.42" cy="415.32" r="4.2"/><circle class="cls-4" cx="390.83" cy="415.32" r="4.2"/><circle class="cls-4" cx="415.25" cy="415.32" r="4.2"/><circle class="cls-4" cx="439.66" cy="415.32" r="4.2"/><circle class="cls-4" cx="464.07" cy="415.32" r="4.2"/><circle class="cls-4" cx="488.49" cy="415.32" r="4.2"/><circle class="cls-4" cx="512.9" cy="415.32" r="4.2"/><circle class="cls-4" cx="342.01" cy="439.13" r="4.2"/><circle class="cls-4" cx="366.42" cy="439.13" r="4.2"/><circle class="cls-4" cx="390.83" cy="439.13" r="4.2"/><circle class="cls-4" cx="415.25" cy="439.13" r="4.2"/><circle class="cls-4" cx="439.66" cy="439.13" r="4.2"/><circle class="cls-4" cx="464.07" cy="439.13" r="4.2"/><circle class="cls-4" cx="488.49" cy="439.13" r="4.2"/><circle class="cls-4" cx="512.9" cy="439.13" r="4.2"/><circle class="cls-4" cx="342.01" cy="462.95" r="4.2"/><circle class="cls-4" cx="366.42" cy="462.95" r="4.2"/><circle class="cls-4" cx="390.83" cy="462.95" r="4.2"/><circle class="cls-4" cx="415.25" cy="462.95" r="4.2"/><circle class="cls-4" cx="439.66" cy="462.95" r="4.2"/><circle class="cls-4" cx="464.07" cy="462.95" r="4.2"/><circle class="cls-4" cx="488.49" cy="462.95" r="4.2"/><circle class="cls-4" cx="512.9" cy="462.95" r="4.2"/><circle class="cls-4" cx="342.01" cy="486.76" r="4.2"/><circle class="cls-4" cx="366.42" cy="486.76" r="4.2"/><circle class="cls-4" cx="390.83" cy="486.76" r="4.2"/><circle class="cls-4" cx="415.25" cy="486.76" r="4.2"/><circle class="cls-4" cx="439.66" cy="486.76" r="4.2"/><circle class="cls-4" cx="464.07" cy="486.76" r="4.2"/><circle class="cls-4" cx="488.49" cy="486.76" r="4.2"/><circle class="cls-4" cx="512.9" cy="486.76" r="4.2"/><circle class="cls-4" cx="342.01" cy="510.57" r="4.2"/><circle class="cls-4" cx="366.42" cy="510.57" r="4.2"/><circle class="cls-4" cx="390.83" cy="510.57" r="4.2"/><circle class="cls-4" cx="415.25" cy="510.57" r="4.2"/><circle class="cls-4" cx="439.66" cy="510.57" r="4.2"/><circle class="cls-4" cx="464.07" cy="510.57" r="4.2"/><circle class="cls-4" cx="488.49" cy="510.57" r="4.2"/><circle class="cls-4" cx="512.9" cy="510.57" r="4.2"/><circle class="cls-4" cx="293.18" cy="272.44" r="4.2"/><circle class="cls-4" cx="317.59" cy="272.44" r="4.2"/><circle class="cls-4" cx="293.18" cy="296.26" r="4.2"/><circle class="cls-4" cx="317.59" cy="296.26" r="4.2"/><circle class="cls-4" cx="293.18" cy="320.07" r="4.2"/><circle class="cls-4" cx="317.59" cy="320.07" r="4.2"/><circle class="cls-4" cx="293.18" cy="343.88" r="4.2"/><circle class="cls-4" cx="317.59" cy="343.88" r="4.2"/><circle class="cls-4" cx="293.18" cy="367.7" r="4.2"/><circle class="cls-4" cx="317.59" cy="367.7" r="4.2"/><circle class="cls-4" cx="293.18" cy="391.51" r="4.2"/><circle class="cls-4" cx="317.59" cy="391.51" r="4.2"/><circle class="cls-4" cx="293.18" cy="415.32" r="4.2"/><circle class="cls-4" cx="317.59" cy="415.32" r="4.2"/><circle class="cls-4" cx="293.18" cy="439.13" r="4.2"/><circle class="cls-4" cx="317.59" cy="439.13" r="4.2"/><circle class="cls-4" cx="293.18" cy="462.95" r="4.2"/><circle class="cls-4" cx="317.59" cy="462.95" r="4.2"/><circle class="cls-4" cx="293.18" cy="486.76" r="4.2"/><circle class="cls-4" cx="317.59" cy="486.76" r="4.2"/><circle class="cls-4" cx="293.18" cy="510.57" r="4.2"/><circle class="cls-4" cx="317.59" cy="510.57" r="4.2"/></g><g class="cls-7"><circle class="cls-3" cx="363.91" cy="282.93" r="4.2"/><circle class="cls-3" cx="388.33" cy="282.93" r="4.2"/><circle class="cls-3" cx="412.74" cy="282.93" r="4.2"/><circle class="cls-3" cx="437.15" cy="282.93" r="4.2"/><circle class="cls-3" cx="461.56" cy="282.93" r="4.2"/><circle class="cls-3" cx="485.98" cy="282.93" r="4.2"/><circle class="cls-3" cx="510.39" cy="282.93" r="4.2"/><circle class="cls-3" cx="363.91" cy="306.74" r="4.2"/><circle class="cls-3" cx="388.33" cy="306.74" r="4.2"/><circle class="cls-3" cx="412.74" cy="306.74" r="4.2"/><circle class="cls-3" cx="437.15" cy="306.74" r="4.2"/><circle class="cls-3" cx="461.56" cy="306.74" r="4.2"/><circle class="cls-3" cx="485.98" cy="306.74" r="4.2"/><circle class="cls-3" cx="510.39" cy="306.74" r="4.2"/><circle class="cls-3" cx="363.91" cy="330.56" r="4.2"/><circle class="cls-3" cx="388.33" cy="330.56" r="4.2"/><circle class="cls-3" cx="412.74" cy="330.56" r="4.2"/><circle class="cls-3" cx="437.15" cy="330.56" r="4.2"/><circle class="cls-3" cx="461.56" cy="330.56" r="4.2"/><circle class="cls-3" cx="485.98" cy="330.56" r="4.2"/><circle class="cls-3" cx="510.39" cy="330.56" r="4.2"/><circle class="cls-3" cx="363.91" cy="354.37" r="4.2"/><circle class="cls-3" cx="388.33" cy="354.37" r="4.2"/><circle class="cls-3" cx="412.74" cy="354.37" r="4.2"/><circle class="cls-3" cx="437.15" cy="354.37" r="4.2"/><circle class="cls-3" cx="461.56" cy="354.37" r="4.2"/><circle class="cls-3" cx="485.98" cy="354.37" r="4.2"/><circle class="cls-3" cx="510.39" cy="354.37" r="4.2"/><circle class="cls-3" cx="363.91" cy="378.18" r="4.2"/><circle class="cls-3" cx="388.33" cy="378.18" r="4.2"/><circle class="cls-3" cx="412.74" cy="378.18" r="4.2"/><circle class="cls-3" cx="437.15" cy="378.18" r="4.2"/><circle class="cls-3" cx="461.56" cy="378.18" r="4.2"/><circle class="cls-3" cx="485.98" cy="378.18" r="4.2"/><circle class="cls-3" cx="510.39" cy="378.18" r="4.2"/><circle class="cls-3" cx="363.91" cy="401.99" r="4.2"/><circle class="cls-3" cx="388.33" cy="401.99" r="4.2"/><circle class="cls-3" cx="412.74" cy="401.99" r="4.2"/><circle class="cls-3" cx="437.15" cy="401.99" r="4.2"/><circle class="cls-3" cx="461.56" cy="401.99" r="4.2"/><circle class="cls-3" cx="485.98" cy="401.99" r="4.2"/><circle class="cls-3" cx="510.39" cy="401.99" r="4.2"/><circle class="cls-3" cx="363.91" cy="425.81" r="4.2"/><circle class="cls-3" cx="388.33" cy="425.81" r="4.2"/><circle class="cls-3" cx="412.74" cy="425.81" r="4.2"/><circle class="cls-3" cx="437.15" cy="425.81" r="4.2"/><circle class="cls-3" cx="461.56" cy="425.81" r="4.2"/><circle class="cls-3" cx="485.98" cy="425.81" r="4.2"/><circle class="cls-3" cx="510.39" cy="425.81" r="4.2"/><circle class="cls-3" cx="363.91" cy="449.62" r="4.2"/><circle class="cls-3" cx="388.33" cy="449.62" r="4.2"/><circle class="cls-3" cx="412.74" cy="449.62" r="4.2"/><circle class="cls-3" cx="437.15" cy="449.62" r="4.2"/><circle class="cls-3" cx="461.56" cy="449.62" r="4.2"/><circle class="cls-3" cx="485.98" cy="449.62" r="4.2"/><circle class="cls-3" cx="510.39" cy="449.62" r="4.2"/><circle class="cls-3" cx="363.91" cy="473.43" r="4.2"/><circle class="cls-3" cx="388.33" cy="473.43" r="4.2"/><circle class="cls-3" cx="412.74" cy="473.43" r="4.2"/><circle class="cls-3" cx="437.15" cy="473.43" r="4.2"/><circle class="cls-3" cx="461.56" cy="473.43" r="4.2"/><circle class="cls-3" cx="485.98" cy="473.43" r="4.2"/><circle class="cls-3" cx="510.39" cy="473.43" r="4.2"/><circle class="cls-3" cx="363.91" cy="497.25" r="4.2"/><circle class="cls-3" cx="388.33" cy="497.25" r="4.2"/><circle class="cls-3" cx="412.74" cy="497.25" r="4.2"/><circle class="cls-3" cx="437.15" cy="497.25" r="4.2"/><circle class="cls-3" cx="461.56" cy="497.25" r="4.2"/><circle class="cls-3" cx="485.98" cy="497.25" r="4.2"/><circle class="cls-3" cx="510.39" cy="497.25" r="4.2"/><circle class="cls-3" cx="315.09" cy="282.93" r="4.2"/><circle class="cls-3" cx="339.5" cy="282.93" r="4.2"/><circle class="cls-3" cx="315.09" cy="306.74" r="4.2"/><circle class="cls-3" cx="339.5" cy="306.74" r="4.2"/><circle class="cls-3" cx="315.09" cy="330.56" r="4.2"/><circle class="cls-3" cx="339.5" cy="330.56" r="4.2"/><circle class="cls-3" cx="315.09" cy="354.37" r="4.2"/><circle class="cls-3" cx="339.5" cy="354.37" r="4.2"/><circle class="cls-3" cx="315.09" cy="378.18" r="4.2"/><circle class="cls-3" cx="339.5" cy="378.18" r="4.2"/><circle class="cls-3" cx="315.09" cy="401.99" r="4.2"/><circle class="cls-3" cx="339.5" cy="401.99" r="4.2"/><circle class="cls-3" cx="315.09" cy="425.81" r="4.2"/><circle class="cls-3" cx="339.5" cy="425.81" r="4.2"/><circle class="cls-3" cx="315.09" cy="449.62" r="4.2"/><circle class="cls-3" cx="339.5" cy="449.62" r="4.2"/><circle class="cls-3" cx="315.09" cy="473.43" r="4.2"/><circle class="cls-3" cx="339.5" cy="473.43" r="4.2"/><circle class="cls-3" cx="315.09" cy="497.25" r="4.2"/><circle class="cls-3" cx="339.5" cy="497.25" r="4.2"/></g><polygon class="cls-3" points="420.11 131.92 387.98 150.47 355.85 169.02 355.85 131.92 355.85 94.81 387.98 113.36 420.11 131.92"/><polygon class="cls-4" points="450.37 131.92 418.24 150.47 386.11 169.02 386.11 131.92 386.11 94.81 418.24 113.36 450.37 131.92"/><polygon class="cls-3" points="482.51 131.92 450.37 150.47 418.24 169.02 418.24 131.92 418.24 94.81 450.37 113.36 482.51 131.92"/><path class="cls-4" d="M95.63,492.62,55.9,452.89l39.73-39.73,39.73,39.73Zm-36.9-39.73,36.9,36.9,36.9-36.9L95.63,416Z"/><path class="cls-3" d="M124.37,492.62,84.64,452.89l39.73-39.73,39.73,39.73Zm-36.9-39.73,36.9,36.9,36.9-36.9L124.37,416Z"/><path class="cls-3" d="M184.15,492.62l-39.73-39.73,39.73-39.73,39.73,39.73Zm-36.9-39.73,36.9,36.9,36.9-36.9L184.15,416Z"/><path class="cls-4" d="M154.12,492.62l-39.73-39.73,39.73-39.73,39.73,39.73Zm-36.9-39.73,36.9,36.9,36.9-36.9L154.12,416Z"/><path class="cls-4" d="M214.86,492.62l-39.73-39.73,39.73-39.73,39.73,39.73ZM178,452.89l36.9,36.9,36.9-36.9L214.86,416Z"/><g class="cls-8"><circle class="cls-3" cx="195.92" cy="223.63" r="2.93"/><circle class="cls-3" cx="212.97" cy="223.63" r="2.93"/><circle class="cls-3" cx="230.01" cy="223.63" r="2.93"/><circle class="cls-3" cx="247.06" cy="223.63" r="2.93"/><circle class="cls-3" cx="264.11" cy="223.63" r="2.93"/><circle class="cls-3" cx="281.16" cy="223.63" r="2.93"/><circle class="cls-3" cx="298.2" cy="223.63" r="2.93"/><circle class="cls-3" cx="315.25" cy="223.63" r="2.93"/><circle class="cls-3" cx="332.3" cy="223.63" r="2.93"/><circle class="cls-3" cx="195.92" cy="240.26" r="2.93"/><circle class="cls-3" cx="212.97" cy="240.26" r="2.93"/><circle class="cls-3" cx="230.01" cy="240.26" r="2.93"/><circle class="cls-3" cx="247.06" cy="240.26" r="2.93"/><circle class="cls-3" cx="264.11" cy="240.26" r="2.93"/><circle class="cls-3" cx="281.16" cy="240.26" r="2.93"/><circle class="cls-3" cx="298.2" cy="240.26" r="2.93"/><circle class="cls-3" cx="315.25" cy="240.26" r="2.93"/><circle class="cls-3" cx="332.3" cy="240.26" r="2.93"/><circle class="cls-3" cx="195.92" cy="256.89" r="2.93"/><circle class="cls-3" cx="212.97" cy="256.89" r="2.93"/><circle class="cls-3" cx="230.01" cy="256.89" r="2.93"/><circle class="cls-3" cx="247.06" cy="256.89" r="2.93"/><circle class="cls-3" cx="264.11" cy="256.89" r="2.93"/><circle class="cls-3" cx="281.16" cy="256.89" r="2.93"/><circle class="cls-3" cx="298.2" cy="256.89" r="2.93"/><circle class="cls-3" cx="315.25" cy="256.89" r="2.93"/><circle class="cls-3" cx="332.3" cy="256.89" r="2.93"/><circle class="cls-3" cx="195.92" cy="273.52" r="2.93"/><circle class="cls-3" cx="212.97" cy="273.52" r="2.93"/><circle class="cls-3" cx="230.01" cy="273.52" r="2.93"/><circle class="cls-3" cx="247.06" cy="273.52" r="2.93"/><circle class="cls-3" cx="264.11" cy="273.52" r="2.93"/><circle class="cls-3" cx="281.16" cy="273.52" r="2.93"/><circle class="cls-3" cx="298.2" cy="273.52" r="2.93"/><circle class="cls-3" cx="315.25" cy="273.52" r="2.93"/><circle class="cls-3" cx="332.3" cy="273.52" r="2.93"/><circle class="cls-3" cx="195.92" cy="290.15" r="2.93"/><circle class="cls-3" cx="212.97" cy="290.15" r="2.93"/><circle class="cls-3" cx="230.01" cy="290.15" r="2.93"/><circle class="cls-3" cx="247.06" cy="290.15" r="2.93"/><circle class="cls-3" cx="264.11" cy="290.15" r="2.93"/><circle class="cls-3" cx="281.16" cy="290.15" r="2.93"/><circle class="cls-3" cx="298.2" cy="290.15" r="2.93"/><circle class="cls-3" cx="315.25" cy="290.15" r="2.93"/><circle class="cls-3" cx="332.3" cy="290.15" r="2.93"/><circle class="cls-3" cx="195.92" cy="306.77" r="2.93"/><circle class="cls-3" cx="212.97" cy="306.77" r="2.93"/><circle class="cls-3" cx="230.01" cy="306.77" r="2.93"/><circle class="cls-3" cx="247.06" cy="306.77" r="2.93"/><circle class="cls-3" cx="264.11" cy="306.77" r="2.93"/><circle class="cls-3" cx="281.16" cy="306.77" r="2.93"/><circle class="cls-3" cx="298.2" cy="306.77" r="2.93"/><circle class="cls-3" cx="315.25" cy="306.77" r="2.93"/><circle class="cls-3" cx="332.3" cy="306.77" r="2.93"/><circle class="cls-3" cx="195.92" cy="323.4" r="2.93"/><circle class="cls-3" cx="212.97" cy="323.4" r="2.93"/><circle class="cls-3" cx="230.01" cy="323.4" r="2.93"/><circle class="cls-3" cx="247.06" cy="323.4" r="2.93"/><circle class="cls-3" cx="264.11" cy="323.4" r="2.93"/><circle class="cls-3" cx="281.16" cy="323.4" r="2.93"/><circle class="cls-3" cx="298.2" cy="323.4" r="2.93"/><circle class="cls-3" cx="315.25" cy="323.4" r="2.93"/><circle class="cls-3" cx="332.3" cy="323.4" r="2.93"/><circle class="cls-3" cx="195.92" cy="340.03" r="2.93"/><circle class="cls-3" cx="212.97" cy="340.03" r="2.93"/><circle class="cls-3" cx="230.01" cy="340.03" r="2.93"/><circle class="cls-3" cx="247.06" cy="340.03" r="2.93"/><circle class="cls-3" cx="264.11" cy="340.03" r="2.93"/><circle class="cls-3" cx="281.16" cy="340.03" r="2.93"/><circle class="cls-3" cx="298.2" cy="340.03" r="2.93"/><circle class="cls-3" cx="315.25" cy="340.03" r="2.93"/><circle class="cls-3" cx="332.3" cy="340.03" r="2.93"/><circle class="cls-3" cx="195.92" cy="356.66" r="2.93"/><circle class="cls-3" cx="212.97" cy="356.66" r="2.93"/><circle class="cls-3" cx="230.01" cy="356.66" r="2.93"/><circle class="cls-3" cx="247.06" cy="356.66" r="2.93"/><circle class="cls-3" cx="264.11" cy="356.66" r="2.93"/><circle class="cls-3" cx="281.16" cy="356.66" r="2.93"/><circle class="cls-3" cx="298.2" cy="356.66" r="2.93"/><circle class="cls-3" cx="315.25" cy="356.66" r="2.93"/><circle class="cls-3" cx="332.3" cy="356.66" r="2.93"/><circle class="cls-3" cx="195.92" cy="373.29" r="2.93"/><circle class="cls-3" cx="212.97" cy="373.29" r="2.93"/><circle class="cls-3" cx="230.01" cy="373.29" r="2.93"/><circle class="cls-3" cx="247.06" cy="373.29" r="2.93"/><circle class="cls-3" cx="264.11" cy="373.29" r="2.93"/><circle class="cls-3" cx="281.16" cy="373.29" r="2.93"/><circle class="cls-3" cx="298.2" cy="373.29" r="2.93"/><circle class="cls-3" cx="315.25" cy="373.29" r="2.93"/><circle class="cls-3" cx="332.3" cy="373.29" r="2.93"/><circle class="cls-3" cx="195.92" cy="389.92" r="2.93"/><circle class="cls-3" cx="212.97" cy="389.92" r="2.93"/><circle class="cls-3" cx="230.01" cy="389.92" r="2.93"/><circle class="cls-3" cx="247.06" cy="389.92" r="2.93"/><circle class="cls-3" cx="264.11" cy="389.92" r="2.93"/><circle class="cls-3" cx="281.16" cy="389.92" r="2.93"/><circle class="cls-3" cx="298.2" cy="389.92" r="2.93"/><circle class="cls-3" cx="315.25" cy="389.92" r="2.93"/><circle class="cls-3" cx="332.3" cy="389.92" r="2.93"/><circle class="cls-3" cx="195.92" cy="406.54" r="2.93"/><circle class="cls-3" cx="212.97" cy="406.54" r="2.93"/><circle class="cls-3" cx="161.82" cy="223.63" r="2.93"/><circle class="cls-3" cx="178.87" cy="223.63" r="2.93"/><circle class="cls-3" cx="161.82" cy="240.26" r="2.93"/><circle class="cls-3" cx="178.87" cy="240.26" r="2.93"/><circle class="cls-3" cx="161.82" cy="256.89" r="2.93"/><circle class="cls-3" cx="178.87" cy="256.89" r="2.93"/><circle class="cls-3" cx="161.82" cy="273.52" r="2.93"/><circle class="cls-3" cx="178.87" cy="273.52" r="2.93"/><circle class="cls-3" cx="161.82" cy="290.15" r="2.93"/><circle class="cls-3" cx="178.87" cy="290.15" r="2.93"/><circle class="cls-3" cx="161.82" cy="306.77" r="2.93"/><circle class="cls-3" cx="178.87" cy="306.77" r="2.93"/><circle class="cls-3" cx="161.82" cy="323.4" r="2.93"/><circle class="cls-3" cx="178.87" cy="323.4" r="2.93"/><circle class="cls-3" cx="161.82" cy="340.03" r="2.93"/><circle class="cls-3" cx="178.87" cy="340.03" r="2.93"/><circle class="cls-3" cx="161.82" cy="356.66" r="2.93"/><circle class="cls-3" cx="178.87" cy="356.66" r="2.93"/><circle class="cls-3" cx="161.82" cy="373.29" r="2.93"/><circle class="cls-3" cx="178.87" cy="373.29" r="2.93"/><circle class="cls-3" cx="161.82" cy="389.92" r="2.93"/><circle class="cls-3" cx="178.87" cy="389.92" r="2.93"/><circle class="cls-3" cx="161.82" cy="406.54" r="2.93"/><circle class="cls-3" cx="178.87" cy="406.54" r="2.93"/><circle class="cls-3" cx="230.01" cy="406.54" r="2.93"/><circle class="cls-3" cx="247.06" cy="406.54" r="2.93"/><circle class="cls-3" cx="264.11" cy="406.54" r="2.93"/><circle class="cls-3" cx="281.16" cy="406.54" r="2.93"/><circle class="cls-3" cx="298.2" cy="406.54" r="2.93"/><circle class="cls-3" cx="315.25" cy="406.54" r="2.93"/><circle class="cls-3" cx="332.3" cy="406.54" r="2.93"/></g><rect class="cls-3" x="415.59" y="214.6" width="172.97" height="2" transform="translate(-25.48 357.91) rotate(-38.34)"/><rect class="cls-4" x="392.12" y="255.31" width="172.97" height="2" transform="translate(-55.79 352.13) rotate(-38.34)"/><path class="cls-4" d="M416.59,262.67l-1.24-1.57,9.41-7.44,1.24,1.57Zm14.91-11.78-1.24-1.57,9.41-7.44,1.24,1.57Zm14.91-11.78-1.24-1.57,9.41-7.44,1.24,1.57Zm14.91-11.78-1.24-1.57,9.42-7.44,1.24,1.57Zm14.91-11.78L475,214l9.42-7.44,1.24,1.57Zm14.91-11.78-1.24-1.57,9.41-7.44,1.24,1.57ZM506,192l-1.24-1.57L514.2,183l1.24,1.57Zm14.91-11.78-1.24-1.57,9.41-7.44,1.24,1.57Zm14.91-11.78-1.24-1.57,9.41-7.44,1.24,1.57Zm14.91-11.78-1.24-1.57,1.54-1.22,1.24,1.57Z"/><path class="cls-3" d="M248.72,175.9c-5.31-7-8.3-18.22-3-27.59,4.59-8.18,4.16-17-1.4-28.75C238,106.39,248.7,95,248.81,94.85l1.45,1.38c-.4.43-9.82,10.56-4.17,22.47,5.86,12.35,6.28,21.78,1.33,30.58-4.82,8.58-2,18.94,2.89,25.41Z"/><path class="cls-4" d="M261.12,175.9c-5.31-7-8.3-18.22-3-27.59,4.59-8.18,4.16-17-1.4-28.75-6.25-13.16,4.42-24.59,4.53-24.7l1.45,1.38c-.4.43-9.82,10.56-4.17,22.47,5.86,12.35,6.28,21.78,1.33,30.58-4.82,8.58-2,18.94,2.89,25.41Z"/><path class="cls-3" d="M272.5,175.9c-5.31-7-8.3-18.22-3-27.59,4.59-8.18,4.16-17-1.4-28.75-6.25-13.16,4.42-24.59,4.53-24.7L274,96.23c-.4.43-9.82,10.56-4.17,22.47,5.87,12.35,6.28,21.78,1.33,30.58-4.82,8.58-2,18.94,2.89,25.41Z"/><path class="cls-4" d="M285,175.9c-5.31-7-8.3-18.22-3-27.59,4.59-8.18,4.16-17-1.4-28.75C274.3,106.39,285,95,285.08,94.85l1.45,1.38c-.4.43-9.83,10.56-4.17,22.47,5.86,12.35,6.28,21.78,1.33,30.58-4.82,8.58-2,18.94,2.89,25.41Z"/></g></svg>